<svg xmlns="http://www.w3.org/2000/svg" viewBox="0 0 1000 800" width="1000" height="800"><defs><filter id="paper" x="0" y="0" width="100%" height="100%"><feTurbulence type="fractalNoise" baseFrequency="0.9" numOctaves="3" seed="3"/><feColorMatrix values="0 0 0 0 0.45  0 0 0 0 0.4  0 0 0 0 0.33  0 0 0 0.09 0"/><feComposite in2="SourceGraphic" operator="in"/></filter><linearGradient id="s5" x1="0" y1="0" x2="0" y2="1"><stop offset="0" stop-color="#3c4a55"/><stop offset="0.5" stop-color="#8d989c"/><stop offset="1" stop-color="#d8d4ca"/></linearGradient>
<linearGradient id="sea" x1="0" y1="0" x2="0" y2="1"><stop offset="0" stop-color="#4f5f66"/><stop offset="1" stop-color="#1f2b31"/></linearGradient>
<filter id="ink"><feTurbulence type="fractalNoise" baseFrequency="0.01 0.04" numOctaves="4" seed="17"/><feDisplacementMap in="SourceGraphic" scale="30"/></filter></defs><rect width="1000" height="800" fill="#d8d4ca"/><rect width="1000" height="800" fill="url(#s5)" filter="url(#ink)"/><path d="M-20 470 C150 430, 300 450, 420 420 C560 390, 700 440, 1020 410 L1020 820 L-20 820 Z" fill="url(#sea)" filter="url(#ink)"/><path d="M600 430 C640 380, 700 360, 760 390 C800 360, 880 370, 1020 400 L1020 440 L600 440 Z" fill="#1d2830" opacity="0.85" filter="url(#ink)"/><path d="M310 620 q30 -8 60 0 t60 0" stroke="#d8d4ca" stroke-width="1.2" fill="none" opacity="0.32"/><path d="M92 579 q30 -8 60 0 t60 0" stroke="#d8d4ca" stroke-width="1.1" fill="none" opacity="0.32"/><path d="M819 648 q30 -8 60 0 t60 0" stroke="#d8d4ca" stroke-width="2.5" fill="none" opacity="0.22"/><path d="M549 766 q30 -8 60 0 t60 0" stroke="#d8d4ca" stroke-width="1.5" fill="none" opacity="0.43"/><path d="M268 554 q30 -8 60 0 t60 0" stroke="#d8d4ca" stroke-width="1.3" fill="none" opacity="0.48"/><path d="M819 633 q30 -8 60 0 t60 0" stroke="#d8d4ca" stroke-width="1.4" fill="none" opacity="0.25"/><path d="M642 648 q30 -8 60 0 t60 0" stroke="#d8d4ca" stroke-width="2.3" fill="none" opacity="0.49"/><path d="M88 690 q30 -8 60 0 t60 0" stroke="#d8d4ca" stroke-width="2.3" fill="none" opacity="0.30"/><path d="M518 698 q30 -8 60 0 t60 0" stroke="#d8d4ca" stroke-width="1.4" fill="none" opacity="0.27"/><path d="M91 643 q30 -8 60 0 t60 0" stroke="#d8d4ca" stroke-width="2.4" fill="none" opacity="0.45"/><path d="M860 780 q30 -8 60 0 t60 0" stroke="#d8d4ca" stroke-width="1.5" fill="none" opacity="0.47"/><path d="M868 659 q30 -8 60 0 t60 0" stroke="#d8d4ca" stroke-width="2.1" fill="none" opacity="0.26"/><path d="M613 716 q30 -8 60 0 t60 0" stroke="#d8d4ca" stroke-width="1.4" fill="none" opacity="0.34"/><path d="M312 619 q30 -8 60 0 t60 0" stroke="#d8d4ca" stroke-width="1.4" fill="none" opacity="0.44"/><path d="M47 541 q30 -8 60 0 t60 0" stroke="#d8d4ca" stroke-width="1.7" fill="none" opacity="0.50"/><path d="M547 765 q30 -8 60 0 t60 0" stroke="#d8d4ca" stroke-width="2.0" fill="none" opacity="0.41"/><path d="M689 574 q30 -8 60 0 t60 0" stroke="#d8d4ca" stroke-width="1.3" fill="none" opacity="0.32"/><path d="M650 603 q30 -8 60 0 t60 0" stroke="#d8d4ca" stroke-width="1.9" fill="none" opacity="0.28"/><line x1="364" y1="223" x2="350" y2="269" stroke="#e9e6df" stroke-width="1" opacity="0.34"/><line x1="328" y1="324" x2="314" y2="370" stroke="#e9e6df" stroke-width="1" opacity="0.29"/><line x1="926" y1="165" x2="912" y2="211" stroke="#e9e6df" stroke-width="1" opacity="0.18"/><line x1="63" y1="362" x2="49" y2="408" stroke="#e9e6df" stroke-width="1" opacity="0.21"/><line x1="783" y1="298" x2="769" y2="344" stroke="#e9e6df" stroke-width="1" opacity="0.30"/><line x1="243" y1="62" x2="229" y2="108" stroke="#e9e6df" stroke-width="1" opacity="0.23"/><line x1="181" y1="148" x2="167" y2="194" stroke="#e9e6df" stroke-width="1" opacity="0.26"/><line x1="43" y1="182" x2="29" y2="228" stroke="#e9e6df" stroke-width="1" opacity="0.32"/><line x1="917" y1="493" x2="903" y2="539" stroke="#e9e6df" stroke-width="1" opacity="0.39"/><line x1="752" y1="345" x2="738" y2="391" stroke="#e9e6df" stroke-width="1" opacity="0.39"/><line x1="18" y1="165" x2="4" y2="211" stroke="#e9e6df" stroke-width="1" opacity="0.22"/><line x1="989" y1="78" x2="975" y2="124" stroke="#e9e6df" stroke-width="1" opacity="0.34"/><line x1="420" y1="441" x2="406" y2="487" stroke="#e9e6df" stroke-width="1" opacity="0.39"/><line x1="635" y1="348" x2="621" y2="394" stroke="#e9e6df" stroke-width="1" opacity="0.35"/><line x1="300" y1="316" x2="286" y2="362" stroke="#e9e6df" stroke-width="1" opacity="0.20"/><line x1="454" y1="149" x2="440" y2="195" stroke="#e9e6df" stroke-width="1" opacity="0.18"/><line x1="390" y1="306" x2="376" y2="352" stroke="#e9e6df" stroke-width="1" opacity="0.39"/><line x1="339" y1="293" x2="325" y2="339" stroke="#e9e6df" stroke-width="1" opacity="0.15"/><line x1="45" y1="232" x2="31" y2="278" stroke="#e9e6df" stroke-width="1" opacity="0.19"/><line x1="802" y1="411" x2="788" y2="457" stroke="#e9e6df" stroke-width="1" opacity="0.24"/><line x1="297" y1="292" x2="283" y2="338" stroke="#e9e6df" stroke-width="1" opacity="0.17"/><line x1="212" y1="217" x2="198" y2="263" stroke="#e9e6df" stroke-width="1" opacity="0.38"/><line x1="116" y1="30" x2="102" y2="76" stroke="#e9e6df" stroke-width="1" opacity="0.17"/><line x1="754" y1="86" x2="740" y2="132" stroke="#e9e6df" stroke-width="1" opacity="0.30"/><line x1="993" y1="76" x2="979" y2="122" stroke="#e9e6df" stroke-width="1" opacity="0.30"/><line x1="559" y1="251" x2="545" y2="297" stroke="#e9e6df" stroke-width="1" opacity="0.30"/><line x1="329" y1="18" x2="315" y2="64" stroke="#e9e6df" stroke-width="1" opacity="0.18"/><line x1="541" y1="149" x2="527" y2="195" stroke="#e9e6df" stroke-width="1" opacity="0.34"/><line x1="419" y1="333" x2="405" y2="379" stroke="#e9e6df" stroke-width="1" opacity="0.40"/><line x1="489" y1="103" x2="475" y2="149" stroke="#e9e6df" stroke-width="1" opacity="0.21"/><line x1="420" y1="251" x2="406" y2="297" stroke="#e9e6df" stroke-width="1" opacity="0.16"/><line x1="431" y1="227" x2="417" y2="273" stroke="#e9e6df" stroke-width="1" opacity="0.21"/><line x1="910" y1="219" x2="896" y2="265" stroke="#e9e6df" stroke-width="1" opacity="0.36"/><line x1="510" y1="96" x2="496" y2="142" stroke="#e9e6df" stroke-width="1" opacity="0.16"/><line x1="260" y1="129" x2="246" y2="175" stroke="#e9e6df" stroke-width="1" opacity="0.21"/><line x1="213" y1="395" x2="199" y2="441" stroke="#e9e6df" stroke-width="1" opacity="0.21"/><line x1="890" y1="133" x2="876" y2="179" stroke="#e9e6df" stroke-width="1" opacity="0.19"/><line x1="52" y1="456" x2="38" y2="502" stroke="#e9e6df" stroke-width="1" opacity="0.38"/><line x1="578" y1="59" x2="564" y2="105" stroke="#e9e6df" stroke-width="1" opacity="0.40"/><line x1="412" y1="492" x2="398" y2="538" stroke="#e9e6df" stroke-width="1" opacity="0.38"/><line x1="669" y1="445" x2="655" y2="491" stroke="#e9e6df" stroke-width="1" opacity="0.35"/><line x1="762" y1="20" x2="748" y2="66" stroke="#e9e6df" stroke-width="1" opacity="0.27"/><line x1="95" y1="220" x2="81" y2="266" stroke="#e9e6df" stroke-width="1" opacity="0.20"/><line x1="894" y1="293" x2="880" y2="339" stroke="#e9e6df" stroke-width="1" opacity="0.37"/><line x1="946" y1="84" x2="932" y2="130" stroke="#e9e6df" stroke-width="1" opacity="0.23"/><line x1="672" y1="241" x2="658" y2="287" stroke="#e9e6df" stroke-width="1" opacity="0.35"/><line x1="657" y1="161" x2="643" y2="207" stroke="#e9e6df" stroke-width="1" opacity="0.35"/><line x1="540" y1="110" x2="526" y2="156" stroke="#e9e6df" stroke-width="1" opacity="0.31"/><line x1="702" y1="410" x2="688" y2="456" stroke="#e9e6df" stroke-width="1" opacity="0.22"/><line x1="944" y1="200" x2="930" y2="246" stroke="#e9e6df" stroke-width="1" opacity="0.39"/><line x1="76" y1="439" x2="62" y2="485" stroke="#e9e6df" stroke-width="1" opacity="0.39"/><line x1="984" y1="321" x2="970" y2="367" stroke="#e9e6df" stroke-width="1" opacity="0.32"/><line x1="45" y1="202" x2="31" y2="248" stroke="#e9e6df" stroke-width="1" opacity="0.37"/><line x1="130" y1="392" x2="116" y2="438" stroke="#e9e6df" stroke-width="1" opacity="0.39"/><line x1="683" y1="438" x2="669" y2="484" stroke="#e9e6df" stroke-width="1" opacity="0.17"/><line x1="171" y1="352" x2="157" y2="398" stroke="#e9e6df" stroke-width="1" opacity="0.31"/><line x1="582" y1="241" x2="568" y2="287" stroke="#e9e6df" stroke-width="1" opacity="0.34"/><line x1="949" y1="199" x2="935" y2="245" stroke="#e9e6df" stroke-width="1" opacity="0.20"/><line x1="3" y1="108" x2="-11" y2="154" stroke="#e9e6df" stroke-width="1" opacity="0.38"/><line x1="13" y1="312" x2="-1" y2="358" stroke="#e9e6df" stroke-width="1" opacity="0.37"/><line x1="118" y1="202" x2="104" y2="248" stroke="#e9e6df" stroke-width="1" opacity="0.35"/><line x1="801" y1="195" x2="787" y2="241" stroke="#e9e6df" stroke-width="1" opacity="0.37"/><line x1="563" y1="27" x2="549" y2="73" stroke="#e9e6df" stroke-width="1" opacity="0.37"/><line x1="206" y1="82" x2="192" y2="128" stroke="#e9e6df" stroke-width="1" opacity="0.32"/><line x1="338" y1="419" x2="324" y2="465" stroke="#e9e6df" stroke-width="1" opacity="0.37"/><line x1="792" y1="401" x2="778" y2="447" stroke="#e9e6df" stroke-width="1" opacity="0.27"/><line x1="539" y1="225" x2="525" y2="271" stroke="#e9e6df" stroke-width="1" opacity="0.16"/><line x1="35" y1="356" x2="21" y2="402" stroke="#e9e6df" stroke-width="1" opacity="0.30"/><line x1="500" y1="287" x2="486" y2="333" stroke="#e9e6df" stroke-width="1" opacity="0.37"/><line x1="622" y1="396" x2="608" y2="442" stroke="#e9e6df" stroke-width="1" opacity="0.18"/><line x1="371" y1="40" x2="357" y2="86" stroke="#e9e6df" stroke-width="1" opacity="0.34"/><line x1="535" y1="463" x2="521" y2="509" stroke="#e9e6df" stroke-width="1" opacity="0.15"/><line x1="857" y1="177" x2="843" y2="223" stroke="#e9e6df" stroke-width="1" opacity="0.36"/><line x1="87" y1="491" x2="73" y2="537" stroke="#e9e6df" stroke-width="1" opacity="0.29"/><line x1="390" y1="105" x2="376" y2="151" stroke="#e9e6df" stroke-width="1" opacity="0.35"/><line x1="318" y1="198" x2="304" y2="244" stroke="#e9e6df" stroke-width="1" opacity="0.21"/><line x1="498" y1="438" x2="484" y2="484" stroke="#e9e6df" stroke-width="1" opacity="0.39"/><line x1="97" y1="39" x2="83" y2="85" stroke="#e9e6df" stroke-width="1" opacity="0.18"/><line x1="635" y1="408" x2="621" y2="454" stroke="#e9e6df" stroke-width="1" opacity="0.37"/><line x1="524" y1="222" x2="510" y2="268" stroke="#e9e6df" stroke-width="1" opacity="0.25"/><line x1="728" y1="397" x2="714" y2="443" stroke="#e9e6df" stroke-width="1" opacity="0.26"/><line x1="643" y1="451" x2="629" y2="497" stroke="#e9e6df" stroke-width="1" opacity="0.39"/><line x1="652" y1="154" x2="638" y2="200" stroke="#e9e6df" stroke-width="1" opacity="0.38"/><line x1="490" y1="216" x2="476" y2="262" stroke="#e9e6df" stroke-width="1" opacity="0.18"/><line x1="571" y1="85" x2="557" y2="131" stroke="#e9e6df" stroke-width="1" opacity="0.24"/><line x1="166" y1="90" x2="152" y2="136" stroke="#e9e6df" stroke-width="1" opacity="0.33"/><line x1="334" y1="253" x2="320" y2="299" stroke="#e9e6df" stroke-width="1" opacity="0.36"/><line x1="264" y1="277" x2="250" y2="323" stroke="#e9e6df" stroke-width="1" opacity="0.39"/><line x1="4" y1="363" x2="-10" y2="409" stroke="#e9e6df" stroke-width="1" opacity="0.19"/><line x1="663" y1="159" x2="649" y2="205" stroke="#e9e6df" stroke-width="1" opacity="0.18"/><line x1="113" y1="249" x2="99" y2="295" stroke="#e9e6df" stroke-width="1" opacity="0.35"/><line x1="615" y1="247" x2="601" y2="293" stroke="#e9e6df" stroke-width="1" opacity="0.28"/><line x1="533" y1="125" x2="519" y2="171" stroke="#e9e6df" stroke-width="1" opacity="0.25"/><line x1="300" y1="182" x2="286" y2="228" stroke="#e9e6df" stroke-width="1" opacity="0.21"/><line x1="184" y1="442" x2="170" y2="488" stroke="#e9e6df" stroke-width="1" opacity="0.31"/><line x1="692" y1="27" x2="678" y2="73" stroke="#e9e6df" stroke-width="1" opacity="0.30"/><line x1="320" y1="278" x2="306" y2="324" stroke="#e9e6df" stroke-width="1" opacity="0.38"/><line x1="478" y1="400" x2="464" y2="446" stroke="#e9e6df" stroke-width="1" opacity="0.38"/><line x1="312" y1="479" x2="298" y2="525" stroke="#e9e6df" stroke-width="1" opacity="0.37"/><line x1="805" y1="225" x2="791" y2="271" stroke="#e9e6df" stroke-width="1" opacity="0.30"/><line x1="452" y1="200" x2="438" y2="246" stroke="#e9e6df" stroke-width="1" opacity="0.19"/><line x1="789" y1="305" x2="775" y2="351" stroke="#e9e6df" stroke-width="1" opacity="0.24"/><line x1="677" y1="174" x2="663" y2="220" stroke="#e9e6df" stroke-width="1" opacity="0.18"/><line x1="84" y1="310" x2="70" y2="356" stroke="#e9e6df" stroke-width="1" opacity="0.19"/><line x1="828" y1="318" x2="814" y2="364" stroke="#e9e6df" stroke-width="1" opacity="0.19"/><line x1="923" y1="481" x2="909" y2="527" stroke="#e9e6df" stroke-width="1" opacity="0.24"/><line x1="589" y1="406" x2="575" y2="452" stroke="#e9e6df" stroke-width="1" opacity="0.24"/><line x1="635" y1="452" x2="621" y2="498" stroke="#e9e6df" stroke-width="1" opacity="0.17"/><line x1="412" y1="330" x2="398" y2="376" stroke="#e9e6df" stroke-width="1" opacity="0.38"/><line x1="183" y1="168" x2="169" y2="214" stroke="#e9e6df" stroke-width="1" opacity="0.31"/><line x1="334" y1="89" x2="320" y2="135" stroke="#e9e6df" stroke-width="1" opacity="0.23"/><line x1="23" y1="309" x2="9" y2="355" stroke="#e9e6df" stroke-width="1" opacity="0.16"/><line x1="972" y1="386" x2="958" y2="432" stroke="#e9e6df" stroke-width="1" opacity="0.36"/><line x1="820" y1="183" x2="806" y2="229" stroke="#e9e6df" stroke-width="1" opacity="0.35"/><line x1="976" y1="50" x2="962" y2="96" stroke="#e9e6df" stroke-width="1" opacity="0.19"/><line x1="598" y1="253" x2="584" y2="299" stroke="#e9e6df" stroke-width="1" opacity="0.32"/><line x1="960" y1="39" x2="946" y2="85" stroke="#e9e6df" stroke-width="1" opacity="0.34"/><line x1="991" y1="59" x2="977" y2="105" stroke="#e9e6df" stroke-width="1" opacity="0.19"/><line x1="490" y1="345" x2="476" y2="391" stroke="#e9e6df" stroke-width="1" opacity="0.37"/><line x1="227" y1="316" x2="213" y2="362" stroke="#e9e6df" stroke-width="1" opacity="0.35"/><line x1="676" y1="155" x2="662" y2="201" stroke="#e9e6df" stroke-width="1" opacity="0.36"/><line x1="704" y1="207" x2="690" y2="253" stroke="#e9e6df" stroke-width="1" opacity="0.37"/><line x1="243" y1="459" x2="229" y2="505" stroke="#e9e6df" stroke-width="1" opacity="0.27"/><line x1="226" y1="158" x2="212" y2="204" stroke="#e9e6df" stroke-width="1" opacity="0.24"/><line x1="763" y1="167" x2="749" y2="213" stroke="#e9e6df" stroke-width="1" opacity="0.28"/><line x1="542" y1="231" x2="528" y2="277" stroke="#e9e6df" stroke-width="1" opacity="0.37"/><line x1="409" y1="259" x2="395" y2="305" stroke="#e9e6df" stroke-width="1" opacity="0.25"/><line x1="837" y1="160" x2="823" y2="206" stroke="#e9e6df" stroke-width="1" opacity="0.22"/><line x1="421" y1="301" x2="407" y2="347" stroke="#e9e6df" stroke-width="1" opacity="0.15"/><line x1="188" y1="459" x2="174" y2="505" stroke="#e9e6df" stroke-width="1" opacity="0.29"/><line x1="709" y1="287" x2="695" y2="333" stroke="#e9e6df" stroke-width="1" opacity="0.30"/><line x1="373" y1="206" x2="359" y2="252" stroke="#e9e6df" stroke-width="1" opacity="0.39"/><line x1="638" y1="14" x2="624" y2="60" stroke="#e9e6df" stroke-width="1" opacity="0.19"/><line x1="69" y1="234" x2="55" y2="280" stroke="#e9e6df" stroke-width="1" opacity="0.39"/><line x1="645" y1="471" x2="631" y2="517" stroke="#e9e6df" stroke-width="1" opacity="0.24"/><line x1="815" y1="159" x2="801" y2="205" stroke="#e9e6df" stroke-width="1" opacity="0.38"/><line x1="773" y1="132" x2="759" y2="178" stroke="#e9e6df" stroke-width="1" opacity="0.27"/><line x1="655" y1="475" x2="641" y2="521" stroke="#e9e6df" stroke-width="1" opacity="0.27"/><line x1="618" y1="398" x2="604" y2="444" stroke="#e9e6df" stroke-width="1" opacity="0.17"/><line x1="946" y1="122" x2="932" y2="168" stroke="#e9e6df" stroke-width="1" opacity="0.17"/><circle cx="250" cy="200" r="70" fill="#ece6d8" opacity="0.35" filter="url(#ink)"/><rect width="1000" height="800" fill="#d8d4ca" filter="url(#paper)"/></svg>